<svg width="42" height="48" viewBox="0 0 42 48" fill="none" xmlns="http://www.w3.org/2000/svg">
<path fill-rule="evenodd" clip-rule="evenodd" d="M32.5942 14.6488C32.2677 12.6734 33.3393 12.2635 32.5942 10.3858C30.9382 6.90638 26.4253 7.0563 23.1137 6.78878C19.42 6.64721 15.6815 7.13484 12.2763 8.61527C11.4629 8.96885 10.6806 9.38468 9.93067 9.85712C9.28221 10.2657 9.37135 11.0425 9.78023 11.4663C6.83181 15.6415 8.51815 21.2459 6.1656 25.6408C5.73101 26.4264 5.15621 27.1308 4.77845 27.9482C4.20424 29.1908 4.16746 30.9711 5.46961 31.7963C7.30361 32.7807 8.32703 30.8317 9.22818 33.657C13.7286 43.5081 22.7772 44.0629 31.3671 38.9269C32.1103 38.5135 32.8688 38.0463 33.43 37.3968C34.7038 35.9633 34.5538 33.9474 34.5819 32.1573C34.5976 31.1082 34.6003 30.059 34.59 29.0097C34.55 24.7596 33.1413 18.8639 32.5942 14.6488Z" fill="white"/>
<path fill-rule="evenodd" clip-rule="evenodd" d="M14.2968 2.8336C19.4832 0.48096 25.3658 -0.411217 31.0233 0.173984C33.8157 0.462373 36.5714 1.08109 39.1939 2.08614L39.4237 2.17497C40.0711 2.42413 40.769 2.67145 41.2609 3.17864C41.8335 3.76806 41.9941 4.6594 41.5848 5.38751C41.2668 5.95327 40.6952 6.3591 40.0854 6.57568C40.3002 6.75157 40.504 6.94777 40.6952 7.1668C41.0174 7.53382 41.0419 8.0572 40.6952 8.41923C40.0271 9.1169 39.1603 9.62168 38.2267 9.86363C38.3315 10.3702 38.2749 10.9309 38.0499 11.4357C37.4044 12.8849 35.5861 13.0576 34.1869 12.9716L34.1446 12.9689L34.0668 13.8594C34.0254 14.3338 33.7412 14.7017 33.2592 14.7744C33.2423 14.7769 33.2253 14.7786 33.2085 14.7802C33.9713 17.5389 34.4321 20.3828 34.8575 23.2099C35.0798 24.6857 35.2787 26.1649 35.4692 27.6451L35.5324 28.1385C35.7353 29.7342 35.989 31.3461 36.077 32.9537C36.1556 34.4125 35.8774 35.8053 34.9784 36.9824C34.1717 38.0378 33.0715 38.8285 31.8884 39.4154C29.2152 40.7422 26.4017 41.73 23.4453 42.1884L23.2481 42.2187C22.1069 42.3929 20.9311 42.5397 19.8021 42.2239C18.8102 41.9465 17.77 41.2311 17.9941 40.0818C18.0694 39.6937 18.6123 39.6767 18.7983 39.9769L18.8413 40.0457C19.0644 40.3997 19.3088 40.7287 19.6982 40.9113C20.1539 41.1262 20.6825 41.1862 21.1806 41.1922C22.5717 41.2082 24.0203 40.8615 25.3598 40.5139C27.8613 39.8646 30.4305 38.8057 32.4795 37.2015C33.3514 36.5199 34.0516 35.6674 34.2985 34.5706C34.6038 33.2184 34.3231 31.7402 34.1844 30.3812C33.899 27.577 33.5593 24.778 33.2009 21.9822L33.129 21.423C32.8272 19.0856 32.51 16.7473 32.3594 14.3964C32.2968 14.311 32.2546 14.2137 32.2376 14.1072L32.214 13.9541V13.9541C32.1937 13.823 32.1903 13.7029 32.2047 13.5922C32.2055 13.1676 32.2173 12.7457 32.2419 12.321C32.246 12.245 32.2495 12.1689 32.252 12.0936C31.8106 12.1909 31.3658 12.2695 30.9192 12.3364C27.7801 12.8091 24.592 12.9275 21.4275 12.6924C19.8486 12.5747 18.2817 12.3727 16.7197 12.1199C15.9247 11.9913 15.1324 11.8492 14.3425 11.6903C13.7717 11.5761 13.2127 11.4213 12.6512 11.2759C12.0719 12.119 11.759 13.1566 11.8199 14.1757C11.8884 15.3385 12.663 16.393 12.4457 17.5812C12.2417 18.6931 11.289 19.0379 10.3485 19.3133L9.94845 19.4289C9.6407 19.5187 9.41723 19.6054 9.36153 19.9753C9.26597 20.6103 9.38352 21.3249 9.40804 21.9634C9.43764 22.7186 9.47645 23.4738 9.4943 24.229C9.5036 24.6197 9.51874 25.012 9.51798 25.4027C9.51713 25.6801 9.47569 25.8695 9.36829 26.0487C9.45117 26.1528 9.5255 26.2653 9.59155 26.3846C9.61269 26.4235 9.56026 26.4648 9.52905 26.4328C9.44525 26.3457 9.35637 26.267 9.26259 26.1967C9.21523 26.2552 9.16026 26.3144 9.0959 26.3778L9.09091 26.371V26.371C8.88965 26.5714 8.56998 26.5909 8.32043 26.3778L8.25495 26.3211C8.07229 26.1609 7.94679 26.0276 7.89599 25.763C7.89345 25.7495 7.89083 25.7359 7.88922 25.7224C7.42495 25.7063 6.95307 25.8162 6.53531 26.0471C5.87316 26.4133 5.40719 26.9351 5.13159 27.5795C5.24144 27.708 5.36998 27.823 5.51967 27.9194C5.54081 27.9338 5.5222 27.9651 5.49937 27.9541C5.34631 27.8822 5.20931 27.7934 5.08669 27.6894C4.98774 27.9431 4.9184 28.2154 4.87611 28.5038C4.72728 29.522 4.99282 30.766 5.9129 31.3461C6.31121 31.5972 6.76618 31.7334 7.23806 31.7351C7.468 31.7358 7.66681 31.697 7.89007 31.6421C8.04144 31.6049 8.19197 31.5507 8.35011 31.5507C8.48542 31.5507 8.61058 31.5846 8.72643 31.6522L8.6943 31.655C8.61622 31.6624 8.63124 31.6657 8.73996 31.6657C9.07823 31.6801 9.2718 32.0235 9.11629 32.322L9.09588 32.3681C9.09158 32.3774 9.08794 32.3851 9.08508 32.3912L9.07279 32.4704C9.07157 32.478 9.07028 32.4857 9.06893 32.4937L9.06423 32.5097C9.06338 32.5123 9.06244 32.5148 9.06132 32.5173L9.56864 33.291C10.1906 34.2374 10.8265 35.1801 11.5501 36.0446C12.0575 36.6509 12.5954 37.2454 13.1636 37.796C13.6744 38.2907 14.2867 38.5292 14.8651 38.9182C15.1739 39.1245 15.2643 39.5567 14.9836 39.8349C14.1598 40.6526 12.9937 40.0032 12.318 39.3385C11.6787 38.7085 11.1264 37.9507 10.6503 37.1922C9.8055 35.8433 9.1332 34.4091 8.83891 32.8522C8.71629 32.9647 8.55984 33.0349 8.4017 33.0898C8.08457 33.1998 7.73531 33.2454 7.40043 33.2573C6.75857 33.2784 6.11586 33.1228 5.53827 32.8471C3.18817 31.7266 2.84313 28.371 4.27992 26.3922C4.08619 25.8303 3.97798 25.2207 3.86042 24.7009L3.80694 24.4685C3.21272 21.8729 2.81389 19.1402 3.86724 16.5968C4.00254 16.2687 4.15476 15.949 4.33489 15.6429C4.4795 15.3968 4.72812 15.1347 4.79662 14.8547C4.94884 14.2399 4.00931 13.5939 3.73531 13.1059C3.41311 12.5334 3.36745 11.8577 3.80635 11.3342C3.86216 11.2683 3.92296 11.2073 3.98901 11.1541C3.57294 10.3998 3.55349 9.45094 4.10148 8.70675C4.46174 8.21627 5.01142 7.87293 5.61184 7.76891C5.97886 7.70549 6.4203 7.72916 6.82368 7.84248C9.03248 5.79174 11.5526 4.07842 14.2968 2.8336ZM5.81476 28.4937C6.40428 27.9736 7.05544 27.7013 7.85882 27.7698C8.66643 27.839 9.63895 28.1732 10.1133 28.8658C10.488 29.4129 9.72436 30.2154 9.17468 29.8044C8.67404 29.4298 8.33992 29.007 7.71844 28.8057C7.16022 28.6256 6.46931 28.5097 5.88495 28.6129C5.82068 28.6239 5.7565 28.5444 5.81476 28.4937Z" fill="black"/>
<path fill-rule="evenodd" clip-rule="evenodd" d="M22.7991 33.7359C22.2306 33.504 21.7234 33.1171 21.3526 32.623C21.2236 32.4512 21.1902 32.2698 21.2172 32.1039C21.2477 31.9173 21.358 31.7482 21.5086 31.6348C21.6596 31.521 21.8484 31.4649 22.031 31.4935C22.1897 31.5184 22.3477 31.6052 22.4727 31.7854L22.4988 31.8214C22.7193 32.1197 23.0065 32.3644 23.3339 32.5222C23.6494 32.6742 24.0023 32.7451 24.3674 32.7039C25.0629 32.6253 25.5422 32.2492 26.0517 31.7385C26.1149 31.674 26.1781 31.6075 26.2416 31.5399C26.2817 31.4786 26.3373 31.4393 26.3991 31.4186C26.4677 31.3957 26.5453 31.397 26.6164 31.4218C26.685 31.4457 26.7462 31.491 26.7873 31.5514C26.8264 31.6087 26.8485 31.6796 26.8414 31.7611C26.7947 32.2904 26.518 32.7628 26.1249 33.1337C25.6883 33.5457 25.1096 33.8307 24.5648 33.9306C23.9646 34.0407 23.3529 33.9618 22.7991 33.7359V33.7359ZM24.8483 25.5702C25.4869 25.9584 26.46 26.8635 25.773 27.8258C24.9643 28.6743 23.8001 27.7014 23.2263 27.2615C22.6944 26.9205 22.0966 27.7975 22.5902 28.1956C26.736 31.265 28.4184 25.6717 25.1713 25.1138C24.8138 25.0523 24.681 25.4501 24.8483 25.5702ZM17.4191 21.9998C17.4896 21.124 18.8235 20.9251 18.9561 21.7917C19.075 22.5681 18.9351 23.2812 18.5854 23.9801C18.2513 24.6479 17.4115 24.3364 17.348 23.7283C17.2628 22.9133 17.3752 22.5446 17.4191 21.9998ZM27.5716 21.612C27.7576 21.3685 28.0261 21.2022 28.3478 21.2962C29.3529 21.5899 29.0566 23.0168 28.7036 23.7113C28.5118 24.0885 27.8919 24.1841 27.6117 23.852C27.155 23.3105 26.9364 22.2289 27.5169 21.6955C27.5326 21.6679 27.5501 21.6401 27.5716 21.612ZM18.5708 18.1675L18.7296 18.1397C19.2208 18.0547 19.8314 17.9731 20.1789 18.368C20.3631 18.5773 20.4266 18.9665 20.1789 19.1669C19.7432 19.5196 19.2615 19.3829 18.7394 19.4128C18.3091 19.4375 17.8956 19.5087 17.4811 19.6272C16.5719 19.887 15.831 20.3614 15.0544 20.8824C14.9525 20.9507 14.8485 20.8204 14.8971 20.7251C15.3454 19.847 16.2141 19.1258 17.0843 18.6861C17.5488 18.4514 18.057 18.2568 18.5708 18.1675ZM26.6557 17.7742L26.7772 17.799C28.0996 18.0755 29.8177 18.6276 30.4439 19.9265C30.4678 20.1102 30.4426 20.1496 30.4221 20.1753L30.4152 20.1838C30.3983 20.2058 30.3849 20.2361 30.3052 20.2611C30.2832 20.2558 30.2608 20.2502 30.2383 20.2443C29.9513 20.1691 29.7241 20.0655 29.5043 19.9579L29.2659 19.8405C28.9893 19.7049 28.7103 19.5742 28.4146 19.4777C27.7835 19.2719 27.1345 19.1269 26.4753 19.0495C26.3325 19.0327 26.1949 18.9845 26.0863 18.9019C25.9833 18.8234 25.9046 18.7148 25.8687 18.5705C25.8222 18.3837 25.8356 18.2422 25.9358 18.0737C26.0112 17.9471 26.1191 17.8594 26.2429 17.809C26.3691 17.7577 26.5128 17.7456 26.6557 17.7742Z" fill="black"/>
</svg>
